<svg id="Layer_1" data-name="Layer 1" xmlns="http://www.w3.org/2000/svg" viewBox="0 0 450 100" width="100%" height="100%">
  <defs>
    <style>
      .cls-text-primary {
        font-family: Montserrat-Bold, Montserrat, 'Plus Jakarta Sans', sans-serif;
        font-size: 122.02px;
        font-weight: 700;
        fill: #221f1e;
        letter-spacing: -0.01em;
      }
      .cls-text-secondary {
        font-family: Montserrat-SemiBold, Montserrat, 'Plus Jakarta Sans', sans-serif;
        font-size: 39.87px;
        font-weight: 600;
        fill: #A86728;
      }
      .cls-circle {
        fill: #221f1e;
      }
      .cls-leaf {
        fill: #A86728;
      }
    </style>
  </defs>
  <!-- Emblem Section -->
  <g transform="translate(-9.37, -1.88) scale(0.13157)">
    <circle cx="489.26" cy="394.32" r="342.02" class="cls-circle" />
    <g>
      <path class="cls-leaf" d="M267.18,619.97C104.74,462.43,158.83,194.13,363.03,103.89c189.97-83.95,409.77,39.85,439.82,243.23,44.36,300.15-316.85,485.08-535.68,272.85ZM701.45,181.38c-61.63-60.54-151.76-94.29-238.46-86.34-134.31,12.32-249.85,116.34-270.4,250.27,55.02-16.97,114.26-7.41,166.47,14.14-27.01-59.84-32.77-126.58-9.81-188.81,1.59-4.31,8.06-20.78,10.41-23.32,4.06-4.39,10.67-1.03,15.38.84,17.8,7.07,42.25,23.14,56.42,36.08,5.42,4.95,15.12,12.91,13.08,20.73-.97,3.71-9.84,22.09-12.14,25.97-1.33,2.25-2.62,5.13-5.38,5.61-4.38.64-12.93-9.45-16.9-12.47-2.72-2.07-21.9-15.08-23.28-14.79-20.47,48.01-11.54,108.77,8.7,155.59,5.77,13.35,12.94,21.49,26.64,27.21-11.5-49.67-5.81-103.02,12.24-150.43,14.64-38.45,38.11-72.55,69.95-98.72,4.27-3.51,17.92-14.89,22.56-14.01,3.65.69,13.92,16.57,16.49,20.6,11.46,18,26.63,49.38,29.75,70.35.63,4.24,1.02,8.29-2,11.62-1.65,1.82-22.08,16.64-24.55,17.89-4.5,2.28-7.29,1.37-9.66-3.09-4.09-7.71-5.96-22.23-10.48-31.96-2.43-5.24-6.31-11.73-9.37-16.71-.51-.84.26-1.79-1.89-1.43-4.99.82-27.69,30.27-31.46,36.04-27.33,41.78-41.78,98.64-39.8,148.43.28,6.97.99,19.52,2.19,26.1.44,2.45,5.64,7.32,7.06,4.93,22.26-99.54,88.13-175.91,186.61-205.13,8.47-2.51,30.67-9.31,38.41-7.91,5.34.97,5.96,15.94,6.25,20.92,1.88,31.98-3.81,70.77-16.18,100.34-27.72,66.3-85.02,113.55-154.7,130.38,7.25,3.79,18.79,11.6,26.77,12.45,4.71.5,20.51-3.78,26.14-5.23,43.6-11.24,92.98-35.5,122.84-69.77,3.33-3.82,22.27-28.44,20.08-31.52-8.06-2.48-16.02-5.48-24.47-6.56-4.42-.56-18.33,1.45-19.68-4.31s12.31-30.02,13.64-37.67c5.43-6.12,36.46.33,44.7,2.24,9.88,2.29,42.03,13.47,48.41,20.14,5.6,5.86-1.41,19.11-4.7,25.76-26.12,52.76-80.63,95.38-135.65,114.63-25.14,8.8-53.31,14.86-80,14.12.22,5.36-.02,12.03-5.41,14.7,18.1,7.37,38.7,11.04,58.21,12.5,35.45,2.66,75.95-.37,107.9-17.22,3.59-1.9,8.18-4.35,11.02-7.24.14-1.76-13.67-15.34-16.09-17.44-8.85-7.7-25.96-12.68-13.58-24.44,3.35-3.18,19.23-15.35,22.95-17.3,4.34-2.28,6.71-1.08,10.77.92,19.97,9.84,36.9,31.64,50.26,48.71.69.89-.03,1.99,2.48,1.38,29.33-104.24-1.78-222.19-78.72-297.77ZM525.43,145.21c-2.56-1.5-17.74,12.04-20.56,14.55-62.55,55.58-86.29,141.94-72.88,223.62l1.09-29.9c4.68-57.3,27.16-125.78,71.79-164.34,5.38-4.65,10.45-11.22,16.92-4.92,11.38,11.07,19.28,34.96,23.37,50.09l15.24-9.47c-2.89-29.08-20.49-54.96-34.96-79.63ZM435.23,411.68c-2.62.57-3.7,1.46-6.44.54-2.75-.92-35.28-23.75-36.46-25.64-24.67-55.98-38.17-113.55-20.75-174.03,5.08-17.63,4.68-23.1,23.42-13.63,9.85,4.98,19.46,12.9,27.79,20.11,2.42.54,8.77-13.79,9.04-16.6-12.08-12.52-27.42-24.02-42.65-32.51-2.43-1.35-17.66-9.64-18.72-9.65-2.85-.03-7.82,13.15-8.96,16.08-20.54,52.39-19.01,109.3,1.41,161.3,3.71,9.45,13.84,26.1,15.52,34.59,2.89,14.6-15.65,2.84-20.49.85-44.92-18.43-92.99-28.05-141.46-18.57-9.14,1.79-17.97,5.23-27.06,7.21-6,46.25-.07,93.56,15.27,137.41,43.51,26.24,69.8,71.88,105.37,105.74,22.7,21.61,38.31,25.78,68.39,31.72,52.81,10.43,117.12,25.13,169.76,13.74,28.68-6.2,81.92-27.07,104.09-46.07,6.53-5.59,11.8-14.68.05-17.4-45.72.44-92.71,8.66-138.21,4.36-51.11-4.83-95.19-23.59-134.91-55.52-3.11-2.5-18.4-15.38-19.33-17.66-2.73-6.68,6.31-21.19,10.69-26.83,17.95-23.12,43.09-22.26,68.3-11.91,2.65,1.09,17.63,8.42,18.6,9.7,2.42,3.19,2.65,14.22,2.79,18.44,1.89.26,1.03-2.47,1.08-3.79.1-2.8-1.47-13.57,3.34-13.15,9.2,3.47,19.2,9.89,29.04,11.23,7.28.98,16.51-.96,23.15.79,5.17,1.36,19.19,10.53,25.69,13.48,69.9,31.73,169.76,34.05,229.91-19.04-13.92-22.21-30.26-41.47-52.52-55.7-2.86,2.53-13.31,8.88-12.76,12.24.17,1.08,13.93,10.45,16.96,13.67,3.37,3.6,13.72,16.78,13.68,21.26-.07,6.86-19.47,16.49-25.47,19.2-47.12,21.32-103.48,21.5-153.09,9.08-4.49-1.12-28.28-8.39-30.18-10.64-5.25-6.21,9.15-12.62,10.38-16.8,1.31-4.42-1.11-10.96,2.4-15.55-4.61,1.57-9.16-.65-13.44-2.34-5.73-2.27-32.76-15.98-36.07-19.43-2.5-2.61-4.42-8.95-.82-10.89,3.16-1.7,18.04-2.63,23.17-3.77,29.64-6.59,61.9-22.83,85.35-41.96,53.1-43.32,78.72-113.85,71.3-181.7-97.59,13.61-174.1,84.2-201.22,178.01-1.97,6.8-6.68,34.05-9.82,36.96-1.32,1.22-1.94,1.65-3.84,1.67-3.7.03-21.94-12.75-21.25-18.59ZM759.51,338.79c-22.62-10.62-47.49-20.6-72.96-19.11l-6.48,16.91c11.75-.18,31.52,3.58,41.07,10.51,9.35,6.78-3.05,23.85-7.96,30.78-40.63,57.22-95.28,76.09-159.56,93.99-1.12.31-3.29.27-3.04,1.83,87.84-2.38,176.04-50.99,208.93-134.9ZM461.34,568.38l-15.72-71.86c-14.95-7.77-37.7-17.59-53.57-7.78-4.98,3.08-19.84,19.89-18.4,25.27.73,2.73,17.88,16.28,21.42,18.92,19.8,14.76,42.85,27.62,66.27,35.46ZM764.94,519.41c-70.79,42.77-158.5,38.65-232.15,5.28-4.58-2.07-13.4-8.18-16.99-9.13-6.88-1.81-18.21-.3-26.44-1.86-5.56-1.05-12.06-3.65-17.11-6.27.71,22.3,4.27,44.42,8.92,66.16,10.4,2.59,21.06,5.07,31.83,5.7,40.49,2.36,79.79-2.42,119.75-4.39,17.11-.84,43.61-1.12,38.37,24.23-2.46,11.91-27.39,26.08-37.81,31.82-53.2,29.33-105.16,41.47-165.79,32.98-31.5-4.41-67.86-10.06-98.88-16.46-76.29-15.73-94.47-76.27-148.96-120.9-.75-.61-3.34-2.96-4.26-2.27,65.07,139.48,228.69,208.39,374.9,156.16,76.4-27.3,142.36-86.37,174.62-161.07Z"/>
      <path class="cls-leaf" d="M594.11,292c-3.5,1.06-7.11,3.58-10.13,5.63-14.45,9.8-29.68,24.1-40.98,37.37-27.41,32.17-41.96,71.6-57.17,110.45l-1.18.91c-7.11-2.25-18.12-6.26-17.6-15.36.28-4.96,5.29-18.88,7.07-24.52,21.43-67.85,67.7-130.41,135.24-157.47,6.82-2.73,30.04-11.68,35.91-8.73,4.54,2.28,3.6,28.08,3.24,33.74-4.3,67.74-54.58,122.8-113.51,150.91-6.96,3.32-20.9,10.49-28.27,8.29-1.7-.51-2.68-1.94-2.95-3.65-.8-5.15,7.09-22.77,9.61-28.42,18.53-41.54,48.81-77.36,80.71-109.16ZM517.95,420.39c44.51-19.38,87.42-51.41,106.82-97.2,7.57-17.86,12.07-37.34,12.86-56.78.1-2.58.7-10.76-1.04-12.04-77.46,16.48-132.98,85.52-152.91,159.51-.49,1.82-3.03,7.81-.57,8.69,18.43-56.31,55.48-113.53,108.81-142.02,6.15-3.28,25.51-13.35,31.59-9.78,2.54,2.85,3.02,6.61,1.13,9.86-2.67,4.59-17.52,15.39-22.39,20.04-17.57,16.76-36.51,35.28-50.36,55.19-4.9,7.04-37.14,60.47-33.93,64.54Z"/>
    </g>
  </g>
  <!-- Text Section -->
  <g transform="translate(68.3, -323.4) scale(0.445)">
    <text class="cls-text-primary" transform="translate(116.18 871.29) scale(1.15 1)">
      <tspan x="0" y="0">P</tspan>
      <tspan x="87.73" y="0">USH</tspan>
      <tspan x="360.32" y="0">P</tspan>
      <tspan x="444.15" y="0">AM</tspan>
    </text>
    <text class="cls-text-secondary" transform="translate(118.18 932.43) scale(1.15 1)">
      <tspan x="0" y="0">A</tspan>
      <tspan x="28.19" y="0">Y</tspan>
      <tspan x="54.15" y="0">UR</tspan>
      <tspan x="114.75" y="0">V</tspan>
      <tspan x="143.22" y="0">E</tspan>
      <tspan x="169.93" y="0">D</tspan>
      <tspan x="202.47" y="0">A </tspan>
      <tspan x="243.34" y="0">W</tspan>
      <tspan x="288.35" y="0">ELLNESS CENTRE</tspan>
    </text>
  </g>
</svg>
